<svg width="16" height="16" viewBox="0 0 16 16" fill="none" xmlns="http://www.w3.org/2000/svg">
<path d="M3.33657 12.8C3.66603 11.8678 4.55502 11.2 5.6 11.2C6.64496 11.2 7.534 11.8678 7.86344 12.8H16V14.4H7.86344C7.534 15.3322 6.64496 16 5.6 16C4.55502 16 3.66603 15.3322 3.33657 14.4H0V12.8H3.33657ZM8.13656 7.2C8.466 6.26785 9.35504 5.6 10.4 5.6C11.445 5.6 12.334 6.26785 12.6634 7.2H16V8.8H12.6634C12.334 9.73216 11.445 10.4 10.4 10.4C9.35504 10.4 8.466 9.73216 8.13656 8.8H0V7.2H8.13656ZM3.33657 1.6C3.66603 0.667848 4.55502 0 5.6 0C6.64496 0 7.534 0.667848 7.86344 1.6H16V3.2H7.86344C7.534 4.13215 6.64496 4.8 5.6 4.8C4.55502 4.8 3.66603 4.13215 3.33657 3.2H0V1.6H3.33657Z" fill="#FD84C7"/>
</svg>
