<svg width="424" height="1281" viewBox="0 0 424 1281" fill="none" xmlns="http://www.w3.org/2000/svg">
<mask id="path-1-inside-1_2770_53689" fill="white">
<path fill-rule="evenodd" clip-rule="evenodd" d="M27 0H0V1281H424V0H27ZM27 0L17 3.76906e-06C17 7.93714 21.4772 14.3715 27 14.3715C32.5228 14.3715 37 7.93714 37 3.76906e-06L27 0ZM407 3.76906e-06C407 7.93714 402.523 14.3715 397 14.3715C391.477 14.3715 387 7.93714 387 3.76906e-06H397H407ZM212 14.3715C217.523 14.3715 222 7.93714 222 3.76906e-06H212H202C202 7.93714 206.477 14.3715 212 14.3715ZM185 3.76906e-06C185 7.93714 180.523 14.3715 175 14.3715C169.477 14.3715 165 7.93714 165 3.76906e-06H175H185ZM138 14.3715C143.523 14.3715 148 7.93714 148 3.76906e-06H138H128C128 7.93714 132.477 14.3715 138 14.3715ZM111 3.76906e-06C111 7.93714 106.523 14.3715 101 14.3715C95.4771 14.3715 91 7.93714 91 3.76906e-06H101H111ZM64 14.3715C69.5229 14.3715 74 7.93714 74 3.76906e-06H64H54C54 7.93714 58.4772 14.3715 64 14.3715ZM259 3.76906e-06C259 7.93714 254.523 14.3715 249 14.3715C243.477 14.3715 239 7.93714 239 3.76906e-06H249H259ZM286 14.3715C291.523 14.3715 296 7.93714 296 3.76906e-06H286H276C276 7.93714 280.477 14.3715 286 14.3715ZM333 3.76906e-06C333 7.93714 328.523 14.3715 323 14.3715C317.477 14.3715 313 7.93714 313 3.76906e-06H323H333ZM360 14.3715C365.523 14.3715 370 7.93714 370 3.76906e-06H360H350C350 7.93714 354.477 14.3715 360 14.3715Z"/>
</mask>
<path fill-rule="evenodd" clip-rule="evenodd" d="M27 0H0V1281H424V0H27ZM27 0L17 3.76906e-06C17 7.93714 21.4772 14.3715 27 14.3715C32.5228 14.3715 37 7.93714 37 3.76906e-06L27 0ZM407 3.76906e-06C407 7.93714 402.523 14.3715 397 14.3715C391.477 14.3715 387 7.93714 387 3.76906e-06H397H407ZM212 14.3715C217.523 14.3715 222 7.93714 222 3.76906e-06H212H202C202 7.93714 206.477 14.3715 212 14.3715ZM185 3.76906e-06C185 7.93714 180.523 14.3715 175 14.3715C169.477 14.3715 165 7.93714 165 3.76906e-06H175H185ZM138 14.3715C143.523 14.3715 148 7.93714 148 3.76906e-06H138H128C128 7.93714 132.477 14.3715 138 14.3715ZM111 3.76906e-06C111 7.93714 106.523 14.3715 101 14.3715C95.4771 14.3715 91 7.93714 91 3.76906e-06H101H111ZM64 14.3715C69.5229 14.3715 74 7.93714 74 3.76906e-06H64H54C54 7.93714 58.4772 14.3715 64 14.3715ZM259 3.76906e-06C259 7.93714 254.523 14.3715 249 14.3715C243.477 14.3715 239 7.93714 239 3.76906e-06H249H259ZM286 14.3715C291.523 14.3715 296 7.93714 296 3.76906e-06H286H276C276 7.93714 280.477 14.3715 286 14.3715ZM333 3.76906e-06C333 7.93714 328.523 14.3715 323 14.3715C317.477 14.3715 313 7.93714 313 3.76906e-06H323H333ZM360 14.3715C365.523 14.3715 370 7.93714 370 3.76906e-06H360H350C350 7.93714 354.477 14.3715 360 14.3715Z" fill="#F9F7DB"/>
<path d="M0 0V-1H-1V0H0ZM27 0L27 -1L27 -1L27 0ZM0 1281H-1V1282H0V1281ZM424 1281V1282H425V1281H424ZM424 0H425V-1H424V0ZM17 3.76906e-06L17 -0.999996L16 -0.999996V3.76906e-06H17ZM37 3.76906e-06H38V-0.999996L37 -0.999996L37 3.76906e-06ZM407 3.76906e-06H408V-0.999996H407V3.76906e-06ZM387 3.76906e-06V-0.999996H386V3.76906e-06H387ZM222 3.76906e-06H223V-0.999996H222V3.76906e-06ZM202 3.76906e-06V-0.999996H201V3.76906e-06H202ZM185 3.76906e-06H186V-0.999996H185V3.76906e-06ZM165 3.76906e-06V-0.999996H164V3.76906e-06H165ZM148 3.76906e-06H149V-0.999996H148V3.76906e-06ZM128 3.76906e-06V-0.999996H127V3.76906e-06H128ZM111 3.76906e-06H112V-0.999996H111V3.76906e-06ZM91 3.76906e-06V-0.999996H90V3.76906e-06H91ZM74 3.76906e-06H75V-0.999996H74V3.76906e-06ZM54 3.76906e-06V-0.999996H53V3.76906e-06H54ZM259 3.76906e-06H260V-0.999996H259V3.76906e-06ZM239 3.76906e-06V-0.999996H238V3.76906e-06H239ZM296 3.76906e-06H297V-0.999996H296V3.76906e-06ZM276 3.76906e-06V-0.999996H275V3.76906e-06H276ZM333 3.76906e-06H334V-0.999996H333V3.76906e-06ZM313 3.76906e-06V-0.999996H312V3.76906e-06H313ZM370 3.76906e-06H371V-0.999996H370V3.76906e-06ZM350 3.76906e-06V-0.999996H349V3.76906e-06H350ZM0 1H27V-1H0V1ZM1 1281V0H-1V1281H1ZM424 1280H0V1282H424V1280ZM423 0V1281H425V0H423ZM27 1H424V-1H27V1ZM27 -1L17 -0.999996L17 1L27 1L27 -1ZM16 3.76906e-06C16 4.14731 17.1681 7.94521 19.1081 10.7333C21.0456 13.5179 23.82 15.3715 27 15.3715V13.3715C24.6572 13.3715 22.4315 12.0079 20.7498 9.591C19.0705 7.17767 18 3.78983 18 3.76906e-06H16ZM27 15.3715C30.18 15.3715 32.9544 13.5179 34.8919 10.7333C36.8319 7.94521 38 4.14731 38 3.76906e-06H36C36 3.78983 34.9295 7.17767 33.2502 9.591C31.5685 12.0079 29.3428 13.3715 27 13.3715V15.3715ZM37 -0.999996L27 -1L27 1L37 1L37 -0.999996ZM397 15.3715C400.18 15.3715 402.954 13.5179 404.892 10.7333C406.832 7.94521 408 4.14731 408 3.76906e-06H406C406 3.78984 404.929 7.17767 403.25 9.591C401.569 12.0079 399.343 13.3715 397 13.3715V15.3715ZM386 3.76906e-06C386 4.14731 387.168 7.94521 389.108 10.7333C391.046 13.5179 393.82 15.3715 397 15.3715V13.3715C394.657 13.3715 392.431 12.0079 390.75 9.591C389.071 7.17767 388 3.78984 388 3.76906e-06H386ZM397 -0.999996H387V1H397V-0.999996ZM407 -0.999996H397V1H407V-0.999996ZM221 3.76906e-06C221 3.78983 219.929 7.17767 218.25 9.591C216.568 12.0079 214.343 13.3715 212 13.3715V15.3715C215.18 15.3715 217.954 13.5179 219.892 10.7333C221.832 7.94521 223 4.14731 223 3.76906e-06H221ZM212 1H222V-0.999996H212V1ZM202 1H212V-0.999996H202V1ZM212 13.3715C209.657 13.3715 207.432 12.0079 205.75 9.591C204.071 7.17767 203 3.78983 203 3.76906e-06H201C201 4.14731 202.168 7.94521 204.108 10.7333C206.046 13.5179 208.82 15.3715 212 15.3715V13.3715ZM175 15.3715C178.18 15.3715 180.954 13.5179 182.892 10.7333C184.832 7.94521 186 4.14731 186 3.76906e-06H184C184 3.78983 182.929 7.17767 181.25 9.591C179.568 12.0079 177.343 13.3715 175 13.3715V15.3715ZM164 3.76906e-06C164 4.14731 165.168 7.94521 167.108 10.7333C169.046 13.5179 171.82 15.3715 175 15.3715V13.3715C172.657 13.3715 170.432 12.0079 168.75 9.591C167.071 7.17767 166 3.78983 166 3.76906e-06H164ZM175 -0.999996H165V1H175V-0.999996ZM185 -0.999996H175V1H185V-0.999996ZM147 3.76906e-06C147 3.78983 145.929 7.17767 144.25 9.591C142.568 12.0079 140.343 13.3715 138 13.3715V15.3715C141.18 15.3715 143.954 13.5179 145.892 10.7333C147.832 7.94521 149 4.14731 149 3.76906e-06H147ZM138 1H148V-0.999996H138V1ZM128 1H138V-0.999996H128V1ZM138 13.3715C135.657 13.3715 133.432 12.0079 131.75 9.591C130.071 7.17767 129 3.78983 129 3.76906e-06H127C127 4.14731 128.168 7.94521 130.108 10.7333C132.046 13.5179 134.82 15.3715 138 15.3715V13.3715ZM101 15.3715C104.18 15.3715 106.954 13.5179 108.892 10.7333C110.832 7.94521 112 4.14731 112 3.76906e-06H110C110 3.78984 108.929 7.17767 107.25 9.591C105.568 12.0079 103.343 13.3715 101 13.3715V15.3715ZM90 3.76906e-06C90 4.14731 91.1681 7.94521 93.1081 10.7333C95.0456 13.5179 97.82 15.3715 101 15.3715V13.3715C98.6572 13.3715 96.4315 12.0079 94.7498 9.591C93.0705 7.17767 92 3.78984 92 3.76906e-06H90ZM101 -0.999996H91V1H101V-0.999996ZM111 -0.999996H101V1H111V-0.999996ZM73 3.76906e-06C73 3.78984 71.9295 7.17767 70.2502 9.591C68.5685 12.0079 66.3428 13.3715 64 13.3715V15.3715C67.18 15.3715 69.9544 13.5179 71.8919 10.7333C73.8319 7.94521 75 4.14731 75 3.76906e-06H73ZM64 1H74V-0.999996H64V1ZM54 1H64V-0.999996H54V1ZM64 13.3715C61.6572 13.3715 59.4315 12.0079 57.7498 9.591C56.0705 7.17767 55 3.78983 55 3.76906e-06H53C53 4.14731 54.1681 7.94521 56.1081 10.7333C58.0456 13.5179 60.82 15.3715 64 15.3715V13.3715ZM249 15.3715C252.18 15.3715 254.954 13.5179 256.892 10.7333C258.832 7.94521 260 4.14731 260 3.76906e-06H258C258 3.78983 256.929 7.17767 255.25 9.591C253.568 12.0079 251.343 13.3715 249 13.3715V15.3715ZM238 3.76906e-06C238 4.14731 239.168 7.94521 241.108 10.7333C243.046 13.5179 245.82 15.3715 249 15.3715V13.3715C246.657 13.3715 244.432 12.0079 242.75 9.591C241.071 7.17767 240 3.78983 240 3.76906e-06H238ZM249 -0.999996H239V1H249V-0.999996ZM259 -0.999996H249V1H259V-0.999996ZM295 3.76906e-06C295 3.78984 293.929 7.17767 292.25 9.591C290.569 12.0079 288.343 13.3715 286 13.3715V15.3715C289.18 15.3715 291.954 13.5179 293.892 10.7333C295.832 7.94521 297 4.14731 297 3.76906e-06H295ZM286 1H296V-0.999996H286V1ZM276 1H286V-0.999996H276V1ZM286 13.3715C283.657 13.3715 281.431 12.0079 279.75 9.591C278.071 7.17767 277 3.78984 277 3.76906e-06H275C275 4.14731 276.168 7.94521 278.108 10.7333C280.046 13.5179 282.82 15.3715 286 15.3715V13.3715ZM323 15.3715C326.18 15.3715 328.954 13.5179 330.892 10.7333C332.832 7.94521 334 4.14731 334 3.76906e-06H332C332 3.78984 330.929 7.17767 329.25 9.591C327.569 12.0079 325.343 13.3715 323 13.3715V15.3715ZM312 3.76906e-06C312 4.14731 313.168 7.94521 315.108 10.7333C317.046 13.5179 319.82 15.3715 323 15.3715V13.3715C320.657 13.3715 318.431 12.0079 316.75 9.591C315.071 7.17767 314 3.78984 314 3.76906e-06H312ZM323 -0.999996H313V1H323V-0.999996ZM333 -0.999996H323V1H333V-0.999996ZM369 3.76906e-06C369 3.78984 367.929 7.17767 366.25 9.591C364.569 12.0079 362.343 13.3715 360 13.3715V15.3715C363.18 15.3715 365.954 13.5179 367.892 10.7333C369.832 7.94521 371 4.14731 371 3.76906e-06H369ZM360 1H370V-0.999996H360V1ZM350 1H360V-0.999996H350V1ZM360 13.3715C357.657 13.3715 355.431 12.0079 353.75 9.591C352.071 7.17767 351 3.78984 351 3.76906e-06H349C349 4.14731 350.168 7.94521 352.108 10.7333C354.046 13.5179 356.82 15.3715 360 15.3715V13.3715Z" fill="#222222" mask="url(#path-1-inside-1_2770_53689)"/>
</svg>
