<svg width="536" height="8" viewBox="0 0 536 8" fill="none" xmlns="http://www.w3.org/2000/svg">
<path d="M501.6 0.0411887C499.172 0.0584061 484.082 0.178928 467.778 0.282232C230.16 1.8318 127.134 3.24362 32.0871 6.22223C12.488 6.84206 6.76432 7.10032 3.81577 7.4791L0 7.94397L3.64232 7.99562C5.72365 8.03006 15.7834 7.85788 26.0166 7.59962C92.7925 5.96397 163.384 4.7071 237.098 3.8118C299.538 3.05423 337.349 2.74432 456.505 2.00397C496.223 1.74571 527.617 1.34971 532.473 1.0398C535.075 0.867623 536.289 0.643797 535.942 0.402754C535.422 0.0411886 534.381 0.0239713 520.679 0.00675392C512.527 -0.0104635 504.028 0.00675394 501.6 0.0411887Z" fill="#FD84C7"/>
</svg>
