<svg width="16" height="16" viewBox="0 0 16 16" fill="none" xmlns="http://www.w3.org/2000/svg">
<path d="M4.85948 13.8828L1.33203 14.6667L2.1159 11.1392C1.61566 10.2038 1.33203 9.13504 1.33203 8.00004C1.33203 4.31814 4.3168 1.33337 7.9987 1.33337C11.6806 1.33337 14.6654 4.31814 14.6654 8.00004C14.6654 11.6819 11.6806 14.6667 7.9987 14.6667C6.8637 14.6667 5.79496 14.3831 4.85948 13.8828ZM4.66536 8.00004C4.66536 9.84097 6.15775 11.3334 7.9987 11.3334C9.83963 11.3334 11.332 9.84097 11.332 8.00004H9.9987C9.9987 9.10464 9.1033 10 7.9987 10C6.8941 10 5.9987 9.10464 5.9987 8.00004H4.66536Z" fill="#FD84C7"/>
</svg>
