<svg width="20" height="20" viewBox="0 0 20 20" fill="none" xmlns="http://www.w3.org/2000/svg">
<path d="M10.8572 1.66748C11.7951 1.66903 12.2703 1.67399 12.681 1.68621L12.8427 1.69151C13.0296 1.69815 13.2139 1.70648 13.4362 1.7169C14.3229 1.75786 14.9278 1.89815 15.4591 2.1044C16.0083 2.3162 16.4722 2.60231 16.9354 3.06551C17.3979 3.5287 17.6841 3.99398 17.8966 4.5419C18.1021 5.07245 18.2424 5.67801 18.2841 6.56481C18.294 6.78703 18.302 6.97136 18.3086 7.15824L18.3138 7.31997C18.326 7.7306 18.3316 8.20591 18.3333 9.14375L18.334 9.76516C18.3341 9.84108 18.3341 9.91942 18.3341 10.0002L18.334 10.2353L18.3335 10.8567C18.3319 11.7946 18.327 12.2698 18.3147 12.6805L18.3094 12.8422C18.3028 13.0291 18.2945 13.2134 18.2841 13.4357C18.2431 14.3224 18.1021 14.9273 17.8966 15.4586C17.6847 16.0078 17.3979 16.4717 16.9354 16.9349C16.4722 17.3974 16.0062 17.6836 15.4591 17.8961C14.9278 18.1016 14.3229 18.2419 13.4362 18.2836C13.2139 18.2935 13.0296 18.3015 12.8427 18.3081L12.681 18.3133C12.2703 18.3255 11.7951 18.3311 10.8572 18.3328L10.2358 18.3335C10.1599 18.3336 10.0816 18.3336 10.0007 18.3336L9.76565 18.3335L9.14424 18.333C8.2064 18.3314 7.73109 18.3265 7.32046 18.3142L7.15873 18.3089C6.97185 18.3023 6.78752 18.294 6.5653 18.2836C5.67849 18.2426 5.07433 18.1016 4.54239 17.8961C3.99377 17.6842 3.52919 17.3974 3.06599 16.9349C2.6028 16.4717 2.31739 16.0057 2.10489 15.4586C1.89864 14.9273 1.75905 14.3224 1.71739 13.4357C1.70749 13.2134 1.69941 13.0291 1.69287 12.8422L1.68763 12.6805C1.67544 12.2698 1.66988 11.7946 1.66808 10.8567L1.66797 9.14375C1.66952 8.20591 1.67448 7.7306 1.6867 7.31997L1.69199 7.15824C1.69864 6.97136 1.70697 6.78703 1.71739 6.56481C1.75835 5.67731 1.89864 5.07315 2.10489 4.5419C2.31669 3.99328 2.6028 3.5287 3.06599 3.06551C3.52919 2.60231 3.99447 2.3169 4.54239 2.1044C5.07364 1.89815 5.6778 1.75856 6.5653 1.7169C6.78752 1.707 6.97185 1.69892 7.15873 1.69238L7.32046 1.68714C7.73109 1.67495 8.2064 1.66939 9.14424 1.66759L10.8572 1.66748ZM10.0007 5.83356C7.6983 5.83356 5.83405 7.69984 5.83405 10.0002C5.83405 12.3027 7.70033 14.1669 10.0007 14.1669C12.3032 14.1669 14.1674 12.3006 14.1674 10.0002C14.1674 7.69781 12.3011 5.83356 10.0007 5.83356ZM10.0007 7.50023C11.3815 7.50023 12.5007 8.61908 12.5007 10.0002C12.5007 11.381 11.3818 12.5002 10.0007 12.5002C8.61999 12.5002 7.50072 11.3813 7.50072 10.0002C7.50072 8.6195 8.61957 7.50023 10.0007 7.50023ZM14.3757 4.58356C13.8013 4.58356 13.3341 5.05015 13.3341 5.62452C13.3341 6.19889 13.8007 6.6662 14.3757 6.6662C14.9501 6.6662 15.4174 6.19961 15.4174 5.62452C15.4174 5.05015 14.9493 4.58284 14.3757 4.58356Z" fill="#222222"/>
</svg>
