<svg width="20" height="20" viewBox="0 0 20 20" fill="none" xmlns="http://www.w3.org/2000/svg">
<g clip-path="url(#clip0_1784_23373)">
<path d="M10.0008 0.800049C15.082 0.800049 19.2008 4.91885 19.2008 10C19.2008 15.0812 15.082 19.2 10.0008 19.2C4.91958 19.2 0.800781 15.0812 0.800781 10C0.800781 4.91885 4.91958 0.800049 10.0008 0.800049ZM13.1744 13.75C13.3436 13.2308 14.1364 8.05645 14.2344 7.03685C14.264 6.72805 14.1664 6.52285 13.9752 6.43125C13.744 6.32005 13.4016 6.37565 13.0044 6.51885C12.4596 6.71525 5.49478 9.67245 5.09238 9.84365C4.71078 10.0056 4.34998 10.1824 4.34998 10.4384C4.34998 10.6184 4.45678 10.7196 4.75118 10.8248C5.05758 10.934 5.82918 11.168 6.28478 11.2936C6.72358 11.4148 7.22318 11.3096 7.50318 11.1356C7.79998 10.9512 11.2252 8.65925 11.4712 8.45845C11.7168 8.25765 11.9128 8.51485 11.712 8.71605C11.5112 8.91685 9.15998 11.1988 8.84998 11.5148C8.47358 11.8984 8.74078 12.296 8.99318 12.4552C9.28158 12.6368 11.3556 14.028 11.668 14.2512C11.9804 14.4744 12.2972 14.5756 12.5872 14.5756C12.8772 14.5756 13.03 14.1936 13.1744 13.75Z" fill="#222222"/>
</g>
<defs>
<clipPath id="clip0_1784_23373">
<rect width="20" height="20" fill="white"/>
</clipPath>
</defs>
</svg>
