<svg width="24" height="24" viewBox="0 0 24 24" fill="none" xmlns="http://www.w3.org/2000/svg">
<mask id="mask0_1939_49397" style="mask-type:luminance" maskUnits="userSpaceOnUse" x="3" y="2" width="17" height="21">
<path d="M16.848 20.434L19.5 8.5H3.5L6.152 20.434C6.319 21.1845 6.402 21.56 6.6765 21.78C6.9505 22 7.335 22 8.1045 22H14.895C15.6645 22 16.049 22 16.323 21.78C16.5975 21.56 16.6805 21.185 16.848 20.434Z" fill="white"/>
<path fill-rule="evenodd" clip-rule="evenodd" d="M3.10998 8.18714C3.20488 8.06884 3.34834 8 3.5 8H19.5C19.6517 8 19.7951 8.06884 19.89 8.18714C19.9849 8.30544 20.021 8.46042 19.9881 8.60847L17.3361 20.5425L17.3287 20.5755C17.2508 20.925 17.1828 21.23 17.0971 21.4727C17.0041 21.7359 16.8728 21.9802 16.6357 22.1702C16.399 22.3601 16.1321 22.4352 15.8551 22.4689C15.5982 22.5 15.2838 22.5 14.9234 22.5H8.0761C7.71566 22.5 7.40136 22.5 7.14444 22.4689C6.8674 22.4352 6.6005 22.3601 6.36381 22.1702M3.10998 8.18714C3.01509 8.30544 2.97901 8.46042 3.01191 8.60847L3.10998 8.18714ZM4.12331 9H18.8767L16.36 20.3252C16.2735 20.713 16.2178 20.9595 16.1542 21.1396C16.0952 21.3066 16.0478 21.3598 16.0103 21.3898C15.9731 21.4197 15.9105 21.4548 15.7346 21.4761C15.5451 21.4991 15.2922 21.5 14.895 21.5H8.1045C7.70735 21.5 7.45442 21.4991 7.26494 21.4761C7.08899 21.4548 7.02677 21.42 6.98955 21.3901C6.9522 21.3602 6.90442 21.3067 6.84544 21.1395C6.78191 20.9595 6.72632 20.713 6.6401 20.3255C6.64009 20.3255 6.64011 20.3256 6.6401 20.3255L4.12331 9ZM3.01191 8.60847L5.66391 20.5425L3.01191 8.60847ZM5.66391 20.5425L5.67105 20.5746L5.66391 20.5425ZM5.67105 20.5746C5.74881 20.9241 5.81671 21.2294 5.90244 21.4723L5.67105 20.5746ZM5.90244 21.4723C5.99531 21.7355 6.12676 21.9801 6.36381 22.1702L5.90244 21.4723Z" fill="white"/>
<path fill-rule="evenodd" clip-rule="evenodd" d="M8.9815 8.00032C9.25745 7.9901 9.48944 8.20552 9.49966 8.48147L9.99966 21.9815C10.0099 22.2574 9.79447 22.4894 9.51851 22.4996C9.24256 22.5099 9.01057 22.2944 9.00035 22.0185L8.50035 8.51848C8.49013 8.24253 8.70555 8.01054 8.9815 8.00032ZM14.0185 8.00032C14.2945 8.01054 14.5099 8.24253 14.4997 8.51848L13.9997 22.0185C13.9894 22.2944 13.7575 22.5099 13.4815 22.4996C13.2055 22.4894 12.9901 22.2574 13.0003 21.9815L13.5003 8.48147C13.5106 8.20552 13.7426 7.9901 14.0185 8.00032Z" fill="black"/>
<path fill-rule="evenodd" clip-rule="evenodd" d="M11.9285 4.2562C11.7946 4.48069 11.5103 4.56407 11.2763 4.44758C11.2763 4.44756 11.2764 4.4476 11.2763 4.44758L11.2758 4.44732C11.2757 4.44728 11.2759 4.44735 11.2758 4.44732L11.2751 4.44696L11.2663 4.44275C11.2579 4.4387 11.2442 4.43227 11.2259 4.42392C11.1891 4.40719 11.1337 4.38292 11.0635 4.35485C10.9222 4.29836 10.7255 4.22821 10.5029 4.17256C10.0323 4.05491 9.55691 4.03013 9.22277 4.1972C8.90811 4.35453 8.71483 4.69018 8.60493 5.07485C8.55238 5.25875 8.52552 5.43213 8.51204 5.56014C8.50537 5.62356 8.50214 5.67432 8.50058 5.70779C8.4998 5.72448 8.49945 5.73675 8.49929 5.744L8.49917 5.75101L8.49917 5.75029C8.49908 5.89716 8.43442 6.03656 8.32235 6.13149C8.21047 6.22628 8.06262 6.26716 7.91797 6.24335C7.91782 6.24332 7.91754 6.24328 7.91713 6.24321L7.90916 6.24201C7.90122 6.24083 7.88816 6.23899 7.87053 6.23676C7.8352 6.23229 7.78185 6.22633 7.71472 6.22117C7.57954 6.21077 7.39335 6.20398 7.18868 6.21763C6.75657 6.24643 6.34696 6.3593 6.10272 6.60354C5.88556 6.8207 5.8132 7.19383 5.84181 7.62298C5.85518 7.82362 5.88897 8.00719 5.91996 8.14146C5.93531 8.208 5.94962 8.26091 5.9597 8.29598C5.96473 8.31347 5.96867 8.32641 5.97111 8.33426L5.9736 8.34212C5.97381 8.34277 5.97391 8.34307 5.97389 8.34304L5.9736 8.34212C6.06074 8.60402 5.91916 8.88703 5.65728 8.97433C5.39531 9.06165 5.11215 8.92007 5.02482 8.6581L5.49914 8.49999C5.02482 8.6581 5.02487 8.65825 5.02482 8.6581L5.02436 8.65671L5.02372 8.65475L5.02191 8.6492L5.01635 8.63165C5.01184 8.61716 5.00577 8.59714 4.99859 8.57216C4.98425 8.52226 4.96537 8.45213 4.94556 8.36632C4.90624 8.1959 4.8619 7.9576 4.84402 7.68949C4.81013 7.18114 4.86277 6.42927 5.39561 5.89643C5.90137 5.39067 6.61676 5.25354 7.12216 5.21984C7.27743 5.20949 7.42289 5.20828 7.55085 5.21169C7.57179 5.08708 7.60142 4.94708 7.6434 4.80012C7.7835 4.30979 8.09022 3.64544 8.77556 3.30277C9.44143 2.96984 10.216 3.07006 10.7454 3.20241C10.9684 3.25815 11.1677 3.32471 11.3262 3.38426C11.4566 3.22219 11.6381 3.02139 11.8658 2.83083C12.3677 2.41086 13.1619 1.99081 14.1365 2.26922C15.0945 2.54288 15.5613 3.26693 15.7808 3.86282C15.8744 4.11683 15.9274 4.35694 15.9576 4.54812C16.0776 4.56975 16.2159 4.60122 16.365 4.6471C16.8365 4.79218 17.4415 5.08977 17.8992 5.69999C18.3985 6.36576 18.3757 7.16312 18.2719 7.71713C18.2183 8.00275 18.1386 8.25007 18.0728 8.42555C18.0397 8.51384 18.0096 8.58539 17.987 8.63617C17.9758 8.66159 17.9664 8.68191 17.9594 8.69662L17.9509 8.71446L17.9481 8.72014L17.9471 8.72215L17.9467 8.72294C17.9466 8.7231 17.9464 8.72359 17.4992 8.49999L17.9464 8.72359C17.8229 8.97058 17.5225 9.07069 17.2756 8.9472C17.029 8.82391 16.9288 8.52435 17.0513 8.2776C17.0513 8.27763 17.0514 8.27756 17.0513 8.2776C17.0515 8.27732 17.0517 8.27693 17.0518 8.27665L17.0554 8.26917C17.059 8.26142 17.065 8.24854 17.0728 8.23099C17.0884 8.19583 17.111 8.14238 17.1365 8.07442C17.1879 7.93741 17.2488 7.74722 17.289 7.53284C17.3726 7.08685 17.3498 6.63421 17.0992 6.29998C16.8068 5.9102 16.4119 5.70779 16.0709 5.60287C15.9015 5.55076 15.7517 5.52479 15.646 5.51198C15.5935 5.50561 15.5527 5.5026 15.527 5.50119C15.5141 5.50049 15.5051 5.50018 15.5003 5.50006L15.4969 5.49998L15.4978 5.49998L15.4984 5.49998C15.4978 5.49998 15.4976 5.49998 15.4969 5.49998C15.2226 5.49857 15.0001 5.27623 14.9992 5.00179L14.999 4.99304C14.9987 4.98438 14.9982 4.9697 14.9971 4.94976C14.9948 4.90977 14.99 4.84925 14.98 4.77415C14.96 4.62244 14.9201 4.41929 14.8425 4.20852C14.687 3.78654 14.4038 3.38559 13.8618 3.23075C13.3364 3.08066 12.8806 3.28561 12.5075 3.59777C12.3234 3.75182 12.1757 3.92 12.0735 4.05139C12.0229 4.11644 11.9848 4.17081 11.9601 4.20754C11.9478 4.22586 11.9389 4.23965 11.9336 4.24804L11.9285 4.2562ZM14.9992 5.00037C14.9992 5.00034 14.9992 5.00039 14.9992 5.00037V5.00037ZM15.4992 4.99998C14.9992 4.99998 14.9992 5.00018 14.9992 5.00037C14.9992 5.00034 14.9992 5.00039 14.9992 5.00037L15.4992 4.99998ZM15.4992 4.99998C15.4992 5.49998 15.4986 5.49998 15.4984 5.49998C15.4986 5.49998 15.499 5.49998 15.4992 5.49998V4.99998ZM8.49917 5.75101L8.49916 5.75153C8.49916 5.7517 8.49916 5.75153 8.49917 5.75101ZM6.99917 8.49999C6.99917 8.22384 7.22302 7.99999 7.49917 7.99999H15.4992C15.7753 7.99999 15.9992 8.22384 15.9992 8.49999C15.9992 8.77613 15.7753 8.99999 15.4992 8.99999H7.49917C7.22302 8.99999 6.99917 8.77613 6.99917 8.49999ZM6.99917 22C6.99917 21.7238 7.22302 21.5 7.49917 21.5H15.4992C15.7753 21.5 15.9992 21.7238 15.9992 22C15.9992 22.2761 15.7753 22.5 15.4992 22.5H7.49917C7.22302 22.5 6.99917 22.2761 6.99917 22Z" fill="white"/>
</mask>
<g mask="url(#mask0_1939_49397)">
<path d="M0 0H24V24H0V0Z" fill="#FD84C7"/>
</g>
</svg>
