<svg width="12" height="12" viewBox="0 0 12 12" fill="none" xmlns="http://www.w3.org/2000/svg">
<g clip-path="url(#clip0_6_20286)">
<path fill-rule="evenodd" clip-rule="evenodd" d="M6 0.500004C6.7224 0.499153 7.43784 0.641029 8.10525 0.917488C8.77265 1.19394 9.37885 1.59952 9.88904 2.11093C10.4005 2.62114 10.806 3.22736 11.0825 3.89476C11.359 4.56217 11.5008 5.27761 11.5 6C11.5009 6.72239 11.359 7.43784 11.0825 8.10525C10.8061 8.77266 10.4005 9.37886 9.88906 9.88906C9.37886 10.4005 8.77266 10.8061 8.10525 11.0825C7.43784 11.359 6.72239 11.5009 5.99999 11.5C5.27761 11.5008 4.56217 11.359 3.89476 11.0825C3.22736 10.806 2.62116 10.4005 2.11095 9.88906C1.59953 9.37887 1.19395 8.77266 0.917488 8.10525C0.641029 7.43784 0.499152 6.72239 0.500004 5.99999C0.499168 5.2776 0.641052 4.56217 0.917507 3.89476C1.19396 3.22736 1.59954 2.62115 2.11095 2.11095C2.62115 1.59954 3.22736 1.19396 3.89476 0.917507C4.56217 0.641051 5.27761 0.499168 6 0.500004ZM7.72256 1.84136C7.17668 1.61525 6.5915 1.49924 6.00065 1.5H5.99937C5.40851 1.49925 4.82333 1.61527 4.27746 1.84138C3.73158 2.0675 3.23577 2.39926 2.81852 2.8176L2.8176 2.81852C2.39926 3.23577 2.0675 3.73158 1.84138 4.27746C1.61527 4.82333 1.49925 5.40851 1.5 5.99937V6.00065C1.49924 6.5915 1.61525 7.17668 1.84136 7.72256C2.06748 8.26843 2.39924 8.76424 2.81759 9.18148L2.81852 9.18241C3.23577 9.60075 3.73158 9.93251 4.27746 10.1586C4.82333 10.3847 5.40851 10.5008 5.99937 10.5H6.00065C6.59151 10.5008 7.17668 10.3848 7.72256 10.1586C8.26843 9.93253 8.76424 9.60076 9.18148 9.18242L9.18242 9.18148C9.60076 8.76424 9.93253 8.26843 10.1586 7.72256C10.3848 7.17668 10.5008 6.59151 10.5 6.00065V5.99937C10.5008 5.40851 10.3847 4.82333 10.1586 4.27746C9.93251 3.73158 9.60075 3.23577 9.18241 2.81852L9.18148 2.81759C8.76424 2.39924 8.26843 2.06748 7.72256 1.84136Z" fill="#FD84C7"/>
<path fill-rule="evenodd" clip-rule="evenodd" d="M6 9.25C6.16576 9.25 6.32473 9.18415 6.44194 9.06694C6.55915 8.94973 6.625 8.79076 6.625 8.625C6.625 8.45924 6.55915 8.30027 6.44194 8.18306C6.32473 8.06585 6.16576 8 6 8C5.83424 8 5.67527 8.06585 5.55806 8.18306C5.44085 8.30027 5.375 8.45924 5.375 8.625C5.375 8.79076 5.44085 8.94973 5.55806 9.06694C5.67527 9.18415 5.83424 9.25 6 9.25Z" fill="#FD84C7"/>
<path fill-rule="evenodd" clip-rule="evenodd" d="M6 2.5C6.27614 2.5 6.5 2.72386 6.5 3V7C6.5 7.27614 6.27614 7.5 6 7.5C5.72386 7.5 5.5 7.27614 5.5 7V3C5.5 2.72386 5.72386 2.5 6 2.5Z" fill="#FD84C7"/>
</g>
<defs>
<clipPath id="clip0_6_20286">
<rect width="12" height="12" fill="white"/>
</clipPath>
</defs>
</svg>
