<svg width="12" height="12" viewBox="0 0 12 12" fill="none" xmlns="http://www.w3.org/2000/svg">
<path d="M2.464 10.7413L5.38701 7.81824C5.72066 7.90734 6.09136 7.82104 6.35306 7.55929C6.74361 7.16879 6.74361 6.53559 6.35306 6.14509C5.96256 5.75454 5.32941 5.75454 4.93887 6.14509C4.67714 6.40684 4.59083 6.77754 4.67992 7.11114L1.75689 10.0342L1.22656 9.50384C2.64078 7.85394 3.17111 6.02724 3.87821 2.96311L7.06021 2.60956L9.88866 5.43799L9.53506 8.61994C6.47096 9.32709 4.64425 9.85739 2.99433 11.2716L2.464 10.7413ZM8.29761 1.01857L11.4709 4.19187C11.5686 4.2895 11.5686 4.44779 11.4709 4.54542C11.4335 4.58287 11.3851 4.60746 11.3328 4.61565L10.5957 4.73088L7.76731 1.90245L7.87336 1.15999C7.89291 1.0233 8.01951 0.928328 8.15621 0.947858C8.20976 0.955508 8.25936 0.980318 8.29761 1.01857Z" fill="#FD84C7"/>
</svg>
