<svg width="200" height="42" viewBox="0 0 200 42" fill="none" xmlns="http://www.w3.org/2000/svg">
<path d="M58.2853 22.423C58.2853 10.9205 48.9498 1.5957 37.4344 1.5957C25.9189 1.5957 16.5835 10.9205 16.5835 22.423C16.5835 23.804 16.7195 25.153 16.9762 26.458H57.8933C58.1501 25.1523 58.286 23.8032 58.286 22.423H58.2853Z" fill="#FF81C8"/>
<path d="M67.1691 28.9648H7.70042C7.10891 28.9648 6.62939 29.4443 6.62939 30.0359C6.62939 30.6274 7.10891 31.1069 7.70042 31.1069H67.1691C67.7606 31.1069 68.2401 30.6274 68.2401 30.0359C68.2401 29.4443 67.7606 28.9648 67.1691 28.9648Z" fill="#FF81C8"/>
<path d="M57.2213 33.6138H17.6487C17.0572 33.6138 16.5776 34.0933 16.5776 34.6848C16.5776 35.2763 17.0572 35.7558 17.6487 35.7558H57.2213C57.8128 35.7558 58.2923 35.2763 58.2923 34.6848C58.2923 34.0933 57.8128 33.6138 57.2213 33.6138Z" fill="#FF81C8"/>
<path d="M50.3663 38.2622H24.5036C23.9121 38.2622 23.4326 38.7417 23.4326 39.3332C23.4326 39.9247 23.9121 40.4043 24.5036 40.4043H50.3663C50.9579 40.4043 51.4374 39.9247 51.4374 39.3332C51.4374 38.7417 50.9579 38.2622 50.3663 38.2622Z" fill="#FF81C8"/>
<path d="M83.1825 16.6305C74.8133 16.6305 73.9375 13.2298 73.9375 11.2556V11.0521H80.2908C80.3515 11.8663 80.7799 13.1896 84.0781 13.1896H84.2612C87.4993 13.1896 87.968 12.4976 87.968 11.7646V11.7433C87.968 10.9693 87.5813 10.4816 84.404 10.3783L81.5942 10.297C75.7294 10.1345 74.1616 8.07748 74.1616 5.73565V5.55259C74.1616 3.08846 75.8114 0.929688 82.8772 0.929688H84.6896C92.183 0.929688 93.8936 3.31178 93.8936 5.71514V5.8777H87.6019C87.5411 5.32775 87.2152 4.26886 83.9368 4.26886H83.7332C80.6994 4.26886 80.3941 4.7983 80.3941 5.38851V5.40902C80.3941 6.02049 80.8415 6.50891 83.693 6.57044L86.4214 6.63121C92.1845 6.79377 94.4238 8.13825 94.4238 11.1926V11.4774C94.4238 14.0228 92.998 16.629 85.0359 16.629H83.1833L83.1825 16.6305Z" fill="black"/>
<path d="M95.5054 1.19482H101.309V7.97573C101.309 9.82838 102.124 12.0487 105.952 12.0487C109.78 12.0487 110.575 9.82838 110.575 7.97573V1.19482H116.358V8.4239C116.358 11.3559 114.953 16.5888 106.38 16.5888H105.565C96.7481 16.5888 95.5054 11.3552 95.5054 8.4239V1.19482Z" fill="black"/>
<path d="M124.629 1.19482L133.427 9.80865V1.19482H139.169V16.3449H133.386L123.897 7.16145V16.3449H118.154V1.19482H124.629Z" fill="black"/>
<path d="M149.679 16.6305C141.31 16.6305 140.434 13.2298 140.434 11.2556V11.0521H146.787C146.848 11.8663 147.277 13.1896 150.575 13.1896H150.758C153.996 13.1896 154.465 12.4976 154.465 11.7646V11.7433C154.465 10.9693 154.078 10.4816 150.901 10.3783L148.091 10.297C142.226 10.1345 140.658 8.07748 140.658 5.73565V5.55259C140.658 3.08846 142.308 0.929688 149.374 0.929688H151.186C158.68 0.929688 160.39 3.31178 160.39 5.71514V5.8777H154.098C154.038 5.32775 153.712 4.26886 150.433 4.26886H150.23C147.196 4.26886 146.891 4.7983 146.891 5.38851V5.40902C146.891 6.02049 147.338 6.50891 150.19 6.57044L152.918 6.63121C158.681 6.79377 160.92 8.13825 160.92 11.1926V11.4774C160.92 14.0228 159.495 16.629 151.533 16.629H149.68L149.679 16.6305Z" fill="black"/>
<path d="M178.986 1.19482V4.90089H167.929V6.79532H178.762V10.4816H167.929V12.5584H179.149V16.3449H162.227V1.19482H178.986Z" fill="black"/>
<path d="M186.747 5.32904H180.211V1.19531H199.068V5.32904H192.531V16.3454H186.748V5.32904H186.747Z" fill="black"/>
<path d="M84.8326 41.0707C75.5261 41.0707 74.1216 36.3262 74.1216 33.455V32.864C74.1216 29.9722 75.3833 25.3501 84.8326 25.3501H85.6264C94.8304 25.3501 96.1749 29.5248 96.1749 31.4793V31.7436H90.168C90.0457 31.3365 89.5771 29.4223 85.1783 29.4223C80.7794 29.4223 80.1087 31.2749 80.1087 32.965V33.2096C80.1087 34.8382 81.1266 36.9772 85.1995 36.9772C89.6591 36.9772 90.1065 34.839 90.1885 34.4926H96.1757V34.8177C96.1757 36.7927 94.7499 41.0692 85.6272 41.0692H84.8334L84.8326 41.0707Z" fill="black"/>
<path d="M103.855 40.7859H98.0918V25.6357H103.855V40.7859Z" fill="black"/>
<path d="M112.816 25.6357L121.613 34.2496V25.6357H127.356V40.7859H121.572L112.083 31.6024V40.7859H106.341V25.6357H112.816Z" fill="black"/>
<path d="M146.603 25.6357V29.3418H135.545V31.2362H146.379V34.9218H135.545V36.9985H146.765V40.7859H129.844V25.6357H146.603Z" fill="black"/>
<path d="M148.967 25.6357H156.909L161.552 34.1478L166.276 25.6357H173.893V40.7859H168.171V31.3373L162.856 40.7859H159.903L154.609 31.3373V40.7859H148.967V25.6357Z" fill="black"/>
<path d="M190.757 38.3423H182.103L180.943 40.7859H175.077L182.571 25.6357H190.35L198.271 40.7859H191.939L190.757 38.3423ZM186.359 29.3418L183.874 34.5549H188.904L186.359 29.3418Z" fill="black"/>
</svg>
