<svg width="199" height="42" viewBox="0 0 199 42" fill="none" xmlns="http://www.w3.org/2000/svg">
<path d="M57.3531 22.4233C57.3531 10.9207 48.0177 1.59595 36.5023 1.59595C24.9868 1.59595 15.6514 10.9207 15.6514 22.4233C15.6514 23.8042 15.7873 25.1533 16.0441 26.4583H56.9612C57.2179 25.1525 57.3539 23.8035 57.3539 22.4233H57.3531Z" fill="#FF81C8"/>
<path d="M66.237 28.9648H6.76829C6.17678 28.9648 5.69727 29.4443 5.69727 30.0359C5.69727 30.6274 6.17678 31.1069 6.76829 31.1069H66.237C66.8285 31.1069 67.308 30.6274 67.308 30.0359C67.308 29.4443 66.8285 28.9648 66.237 28.9648Z" fill="#FF81C8"/>
<path d="M56.2882 33.6135H16.7156C16.1241 33.6135 15.6445 34.093 15.6445 34.6845C15.6445 35.2761 16.1241 35.7556 16.7156 35.7556H56.2882C56.8797 35.7556 57.3592 35.2761 57.3592 34.6845C57.3592 34.093 56.8797 33.6135 56.2882 33.6135Z" fill="#FF81C8"/>
<path d="M49.4337 38.2622H23.571C22.9795 38.2622 22.5 38.7417 22.5 39.3332C22.5 39.9247 22.9795 40.4043 23.571 40.4043H49.4337C50.0252 40.4043 50.5048 39.9247 50.5048 39.3332C50.5048 38.7417 50.0252 38.2622 49.4337 38.2622Z" fill="#FF81C8"/>
<path d="M82.2499 16.6305C73.8807 16.6305 73.0049 13.2298 73.0049 11.2556V11.0521H79.3581C79.4189 11.8663 79.8473 13.1896 83.1455 13.1896H83.3285C86.5667 13.1896 87.0354 12.4976 87.0354 11.7646V11.7433C87.0354 10.9693 86.6487 10.4816 83.4713 10.3783L80.6616 10.297C74.7968 10.1345 73.229 8.07748 73.229 5.73565V5.55259C73.229 3.08846 74.8788 0.929688 81.9446 0.929688H83.7569C91.2504 0.929688 92.961 3.31178 92.961 5.71514V5.8777H86.6692C86.6085 5.32775 86.2826 4.26886 83.0042 4.26886H82.8006C79.7668 4.26886 79.4614 4.7983 79.4614 5.38851V5.40902C79.4614 6.02049 79.9088 6.50891 82.7604 6.57044L85.4888 6.63121C91.2519 6.79377 93.4912 8.13825 93.4912 11.1926V11.4774C93.4912 14.0228 92.0654 16.629 84.1033 16.629H82.2507L82.2499 16.6305Z" fill="black"/>
<path d="M94.5732 1.19482H100.377V7.97573C100.377 9.82838 101.192 12.0487 105.02 12.0487C108.848 12.0487 109.643 9.82838 109.643 7.97573V1.19482H115.426V8.4239C115.426 11.3559 114.02 16.5888 105.448 16.5888H104.633C95.8159 16.5888 94.5732 11.3552 94.5732 8.4239V1.19482Z" fill="black"/>
<path d="M123.696 1.19482L132.494 9.80865V1.19482H138.237V16.3449H132.453L122.964 7.16145V16.3449H117.222V1.19482H123.696Z" fill="black"/>
<path d="M148.746 16.6305C140.377 16.6305 139.501 13.2298 139.501 11.2556V11.0521H145.854C145.915 11.8663 146.343 13.1896 149.642 13.1896H149.825C153.063 13.1896 153.531 12.4976 153.531 11.7646V11.7433C153.531 10.9693 153.145 10.4816 149.968 10.3783L147.158 10.297C141.293 10.1345 139.725 8.07748 139.725 5.73565V5.55259C139.725 3.08846 141.375 0.929688 148.441 0.929688H150.253C157.746 0.929688 159.457 3.31178 159.457 5.71514V5.8777H153.165C153.105 5.32775 152.779 4.26886 149.5 4.26886H149.297C146.263 4.26886 145.958 4.7983 145.958 5.38851V5.40902C145.958 6.02049 146.405 6.50891 149.256 6.57044L151.985 6.63121C157.748 6.79377 159.987 8.13825 159.987 11.1926V11.4774C159.987 14.0228 158.561 16.629 150.599 16.629H148.747L148.746 16.6305Z" fill="black"/>
<path d="M178.053 1.19482V4.90089H166.995V6.79532H177.829V10.4816H166.995V12.5584H178.215V16.3449H161.294V1.19482H178.053Z" fill="black"/>
<path d="M185.815 5.32929H179.278V1.19556H198.135V5.32929H191.598V16.3457H185.815V5.32929H185.815Z" fill="black"/>
<path d="M83.8995 41.0704C74.593 41.0704 73.1885 36.326 73.1885 33.4547V32.8638C73.1885 29.972 74.4502 25.3499 83.8995 25.3499H84.6933C93.8973 25.3499 95.2418 29.5246 95.2418 31.479V31.7434H89.2349C89.1126 31.3362 88.644 29.4221 84.2451 29.4221C79.8463 29.4221 79.1756 31.2747 79.1756 32.9648V33.2094C79.1756 34.838 80.1935 36.977 84.2664 36.977C88.726 36.977 89.1734 34.8387 89.2554 34.4924H95.2426V34.8175C95.2426 36.7924 93.8168 41.0689 84.6941 41.0689H83.9003L83.8995 41.0704Z" fill="black"/>
<path d="M102.922 40.7856H97.1592V25.6355H102.922V40.7856Z" fill="black"/>
<path d="M111.883 25.6355L120.681 34.2493V25.6355H126.423V40.7856H120.64L111.151 31.6021V40.7856H105.408V25.6355H111.883Z" fill="black"/>
<path d="M145.67 25.6355V29.3416H134.613V31.236H145.446V34.9216H134.613V36.9983H145.833V40.7856H128.911V25.6355H145.67Z" fill="black"/>
<path d="M148.035 25.6355H155.977L160.62 34.1475L165.344 25.6355H172.961V40.7856H167.238V31.337L161.924 40.7856H158.971L153.677 31.337V40.7856H148.035V25.6355Z" fill="black"/>
<path d="M189.825 38.342H181.17L180.01 40.7856H174.145L181.639 25.6355H189.418L197.339 40.7856H191.006L189.825 38.342ZM185.426 29.3416L182.941 34.5547H187.971L185.426 29.3416Z" fill="black"/>
</svg>
