<svg width="20" height="21" viewBox="0 0 20 21" fill="none" xmlns="http://www.w3.org/2000/svg">
<path d="M10.0003 2.16675C14.6027 2.16675 18.3337 5.89771 18.3337 10.5001C18.3337 15.1024 14.6027 18.8334 10.0003 18.8334C5.39795 18.8334 1.66699 15.1024 1.66699 10.5001C1.66699 5.89771 5.39795 2.16675 10.0003 2.16675ZM10.1334 13.8334C8.43724 13.8334 6.91018 14.5573 5.84429 15.7131C6.98398 16.6229 8.42866 17.1667 10.0003 17.1667C11.6416 17.1667 13.1442 16.5737 14.3058 15.5902C13.2467 14.5062 11.7686 13.8334 10.1334 13.8334ZM10.0003 3.83341C6.31843 3.83341 3.33366 6.81818 3.33366 10.5001C3.33366 12.0089 3.83491 13.4007 4.67997 14.5179C6.04732 13.0702 7.98486 12.1667 10.1334 12.1667C12.2037 12.1667 14.0781 13.0056 15.4352 14.3619C16.2108 13.2723 16.667 11.9395 16.667 10.5001C16.667 6.81818 13.6822 3.83341 10.0003 3.83341ZM10.0003 4.66675C11.8412 4.66675 13.3337 6.15913 13.3337 8.00008C13.3337 9.841 11.8412 11.3334 10.0003 11.3334C8.15938 11.3334 6.66699 9.841 6.66699 8.00008C6.66699 6.15913 8.15938 4.66675 10.0003 4.66675ZM10.0003 6.33341C9.07983 6.33341 8.33366 7.07961 8.33366 8.00008C8.33366 8.92058 9.07983 9.66675 10.0003 9.66675C10.9208 9.66675 11.667 8.92058 11.667 8.00008C11.667 7.07961 10.9208 6.33341 10.0003 6.33341Z" fill="#FD84C7"/>
</svg>
