<svg width="137" height="14" viewBox="0 0 137 14" fill="none" xmlns="http://www.w3.org/2000/svg">
<path d="M0.5 0.597168H4.47201V13.4059H0.5V0.597168Z" fill="white"/>
<path d="M7.87695 0.596436H14.1985L22.1003 10.3326L22.002 0.596436H25.7598V13.4052H19.3873L11.5943 3.76544L11.6927 13.4052H7.87695V0.596436Z" fill="white"/>
<path d="M45.4824 8.58364C45.4631 10.4464 45.4034 11.0806 45.1312 11.6562C44.622 12.7521 43.5649 13.2708 41.5297 13.4052C40.7272 13.481 39.1626 13.5 36.5603 13.5C32.8025 13.5 31.5891 13.3277 30.532 12.6556C29.2414 11.8492 28.8691 10.505 28.8691 6.70188C28.8691 3.32264 29.2607 2.11294 30.6251 1.34438C31.7999 0.672323 33.0519 0.5 36.7113 0.5C41.5841 0.5 42.6395 0.596501 43.7563 1.13415C44.8099 1.65111 45.3015 2.78499 45.3015 4.66675V5.08895H41.5121C41.4331 3.68796 41.1399 3.57251 37.6964 3.57251C34.4479 3.57251 33.8614 3.64833 33.3715 4.07224C32.8815 4.49616 32.8043 5.01312 32.8043 7.08616C32.8043 10.1587 33.0975 10.3896 36.9132 10.3896C39.8685 10.3896 40.2988 10.3706 40.8466 10.1397C41.3945 9.9088 41.6298 9.50557 41.6298 8.58881L45.4824 8.58364Z" fill="white"/>
<path d="M48.6113 0.596436H59.8618C62.1709 0.596436 63.1894 0.787714 63.9322 1.4029C64.675 2.0181 65.042 3.09166 65.042 4.82006C65.042 7.20155 64.4555 8.14243 62.7926 8.50776C64.4168 8.77658 64.8997 9.44864 64.8664 11.3873V13.4052H60.8276V11.8112C60.8083 10.4326 60.4167 10.1396 58.6362 10.1776H52.564V13.4052H48.6113V0.596436ZM58.7661 7.04818C60.6836 7.04818 61.0489 6.81727 61.0489 5.5507C61.0489 4.72528 60.9699 4.37891 60.717 4.11009C60.422 3.80336 60.0901 3.74477 58.8961 3.74477H52.557V7.04818H58.7661Z" fill="white"/>
<path d="M82.7161 0.596436V3.4949H72.168V5.70407H82.1085V8.23893H72.168V10.505H82.853V13.4052H68.2539V0.596436H82.7161Z" fill="white"/>
<path d="M92.2603 0.596436H97.5826L104.728 13.4052H100.383L99.091 11.1184H90.6799L89.4279 13.4052H84.9238L92.2603 0.596436ZM97.7038 8.44917L94.8942 3.34153L92.1058 8.44917H97.7038Z" fill="white"/>
<path d="M109.597 3.76544H103.785V0.596436H119.382V3.76544H113.569V13.4052H109.597V3.76544Z" fill="white"/>
<path d="M136.363 0.596436V3.4949H125.815V5.70407H135.757V8.23893H125.815V10.505H136.5V13.4052H121.902V0.596436H136.363Z" fill="white"/>
</svg>
