<svg width="398" height="8" viewBox="0 0 398 8" fill="none" xmlns="http://www.w3.org/2000/svg">
<path d="M372.457 0.0411887C370.654 0.0584064 359.449 0.178928 347.343 0.282232C170.903 1.8318 94.4021 3.24362 23.8259 6.22223C9.27278 6.84206 5.02276 7.10032 2.83335 7.4791L0 7.94397L2.70456 7.99562C4.25002 8.03006 11.7198 7.85788 19.3183 7.59962C68.9019 5.96397 121.319 4.7071 176.054 3.8118C222.418 3.05423 250.494 2.74432 338.972 2.00397C368.464 1.74571 391.775 1.34971 395.381 1.0398C397.313 0.867624 398.214 0.643797 397.957 0.402754C397.571 0.0411887 396.798 0.0239716 386.623 0.00675392C380.57 -0.0104637 374.26 0.00675392 372.457 0.0411887Z" fill="#FD84C7"/>
</svg>
