<svg width="624" height="15" viewBox="0 0 624 15" fill="none" xmlns="http://www.w3.org/2000/svg">
<path d="M583.952 0.0772295C581.125 0.109512 563.558 0.33549 544.578 0.529186C267.948 3.43462 148.007 6.08179 37.3552 11.6667C14.5382 12.8289 7.87488 13.3131 4.44224 14.0233L0 14.8949L4.24032 14.9918C6.66336 15.0564 18.3747 14.7335 30.288 14.2493C108.027 11.1824 190.209 8.82582 276.024 7.14712C348.716 5.72669 392.734 5.1456 531.453 3.75745C577.693 3.27321 614.24 2.53071 619.894 1.94962C622.923 1.62679 624.336 1.20712 623.932 0.755164C623.327 0.0772295 622.115 0.0449467 606.163 0.0126638C596.673 -0.019618 586.779 0.0126638 583.952 0.0772295Z" fill="#F7F262"/>
</svg>
